Coordinates
version=1
nRows=12
nColumns=34
inDegrees=yes

Units are S.I. units (second, meters, Newtons, ...)
If the header above contains a line with 'inDegrees', this indicates whether rotational values are in degrees (yes) or radians (no).

endheader
time	pelvis_tilt	pelvis_list	pelvis_rotation	pelvis_tx	pelvis_ty	pelvis_tz	hip_flexion_r	hip_adduction_r	hip_rotation_r	knee_angle_r	ankle_angle_r	subtalar_angle_r	mtp_angle_r	hip_flexion_l	hip_adduction_l	hip_rotation_l	knee_angle_l	ankle_angle_l	subtalar_angle_l	mtp_angle_l	lumbar_extension	lumbar_bending	lumbar_rotation	arm_flex_r	arm_add_r	arm_rot_r	elbow_flex_r	pro_sup_r	arm_flex_l	arm_add_l	arm_rot_l	elbow_flex_l	pro_sup_l
      5.83333330	      4.10208041	      5.47211791	    -29.31050569	      0.07319248	      0.99873849	      0.23054824	     -3.03418111	     -7.91558288	     -8.74726143	     17.93409059	      8.35169967	    -14.07575932	      0.00000000	      2.30994224	      1.09138372	     28.89338698	      0.00000000	      7.54936583	      8.04681875	      0.00000000	    -14.29859636	     -0.19497036	      3.66967363	      9.34399211	    -14.99711581	     20.33084834	     15.97634770	    119.74817918	      9.07855133	     -6.66462362	     25.02720495	     23.09303807	    118.35900606
      5.85000000	      4.22294804	      5.25517139	    -26.94879787	      0.07509271	      0.99945863	      0.22756639	     -4.28558360	     -7.57583841	    -11.09034408	     17.06769123	      8.26179184	    -13.76966749	      0.00000000	      2.55386653	      1.22357326	     30.87204997	      0.59609406	      7.82095960	      8.29420077	      0.00000000	    -14.53072002	      0.42440993	      2.12655795	      9.18739632	    -15.19935493	     21.48143464	     16.14642306	    119.74817918	      9.26658552	     -7.14218581	     31.30348441	     24.66845707	    119.74817918
      5.86666670	      4.11406688	      5.33132486	    -25.74799780	      0.07600943	      0.99936490	      0.22699395	     -4.59718482	     -7.43832190	    -12.19842629	     16.79821493	      8.23500295	    -13.77212163	      0.00000000	      2.73088061	      1.23636789	     31.83225983	      0.47828052	      7.66385050	      8.46601062	      0.00000000	    -14.34770221	      0.48514107	      2.00648219	      8.39515081	    -15.35270763	     21.79617339	     16.73019959	    119.74817918	      8.95998891	     -7.39298642	     33.83860763	     27.17588599	    119.74817918
      5.88333330	      4.04115259	      5.40552362	    -24.09369585	      0.07766685	      0.99939896	      0.22591738	     -5.30165165	     -7.24026408	    -13.93935554	     16.06913738	      7.92387745	    -13.66285053	      0.00000000	      2.95289765	      1.36186951	     33.21371166	      0.55304628	      7.73041381	      8.50260730	      0.00000000	    -14.15978309	      0.58681691	      1.43310019	      7.58091324	    -15.35902583	     21.61450420	     17.10180139	    119.74817918	      8.83714925	     -7.71815396	     36.88781810	     29.12726166	    119.74817918
      5.90000000	      3.81278249	      5.58214343	    -23.09301648	      0.07802115	      0.99909279	      0.22588533	     -5.42169393	     -7.07922131	    -14.70436833	     15.70143678	      7.80356933	    -13.86723991	      0.00000000	      3.21102607	      1.36485304	     33.72104184	      0.28012541	      7.51666168	      8.79623219	      0.00000000	    -13.94727628	      0.48200549	      1.43645708	      6.87534688	    -15.35331467	     21.64984057	     17.64034095	    119.74817918	      8.43042232	     -8.03834544	     37.88283612	     31.57994323	    119.74817918
      5.91666670	      3.76723295	      5.71234897	    -21.65730838	      0.07919734	      0.99901747	      0.22504744	     -5.90588872	     -6.91152413	    -15.88412931	     15.27774778	      7.66913505	    -14.15673061	      0.00000000	      3.41262150	      1.55336339	     34.68064591	      0.34989698	      7.49950269	      9.11080346	      0.00000000	    -13.89903443	      0.49734837	      0.81335599	      6.31586375	    -15.33875317	     21.48915582	     18.12592901	    119.74817918	      8.00492620	     -8.54619395	     39.42097465	     34.04663021	    119.74817918
      5.93333330	      3.57220951	      5.92251202	    -20.53876178	      0.08007771	      0.99869193	      0.22525512	     -6.20379295	     -6.74883191	    -16.92511481	     14.69795610	      7.49484379	    -14.26991017	      0.00000000	      3.62497993	      1.63203092	     35.39812498	      0.12632353	      7.42883430	      9.36344570	      0.00000000	    -13.66540232	      0.32963910	      0.72957024	      5.62367651	    -15.12833629	     21.33514569	     18.34523011	    119.74817918	      7.66985856	     -9.00380259	     40.41547016	     36.01143554	    119.74817918
      5.95000000	      3.49349064	      6.08829422	    -19.35868158	      0.08114513	      0.99850630	      0.22514902	     -6.62263432	     -6.57372268	    -17.92086579	     14.21968101	      7.44547092	    -14.37164374	      0.00000000	      3.76613767	      1.76086752	     36.28815762	      0.06328037	      7.33044630	      9.62411925	      0.00000000	    -13.55262241	      0.19459207	      0.53489894	      5.00584943	    -14.87851534	     21.08752239	     18.53127394	    119.74817918	      7.32093576	     -9.56450618	     41.36696208	     37.99341452	    119.74817918
      5.96666670	      3.42442561	      6.22172767	    -18.53010719	      0.08182022	      0.99836168	      0.22562402	     -6.94282461	     -6.42159621	    -18.71959053	     13.78198247	      7.42424776	    -14.44288077	      0.00000000	      3.88737041	      1.83016307	     37.05134534	      0.00000000	      7.16265631	      9.90309322	      0.00000000	    -13.43472049	      0.00806303	      0.74515815	      4.53731842	    -14.63337769	     20.93409411	     18.53490936	    119.74817918	      7.08818293	     -9.85543030	     41.86095807	     39.30735462	    119.74817918
      5.98333330	      3.38442381	      6.33212837	    -17.31017521	      0.08269488	      0.99826110	      0.22539425	     -7.38277783	     -6.21061803	    -19.76928451	     13.39780789	      7.30587604	    -14.40964401	      0.00000000	      4.00562897	      1.95469830	     38.00386949	      0.00363131	      7.06931832	     10.16723132	      0.00000000	    -13.36504208	     -0.08162072	      0.46434621	      4.06063276	    -14.24810949	     20.72347832	     18.61136133	    119.74817918	      6.75774655	    -10.53425642	     42.52660497	     40.96184594	    119.74817918
      6.00000000	      3.38654964	      6.41828261	    -16.28596297	      0.08348252	      0.99820348	      0.22538104	     -7.84628995	     -6.00719736	    -20.90858456	     12.93652297	      7.28611297	    -14.23576974	      0.00000000	      4.08392573	      2.06131516	     38.95144157	      0.00000000	      6.94962507	     10.28281892	      0.00000000	    -13.34867118	     -0.15691125	      0.45880191	      3.72838018	    -13.86836429	     20.51241396	     18.44585908	    119.74817918	      6.60740121	    -10.90798819	     42.80338113	     41.96829624	    119.74817918
      6.01666670	      3.34896732	      6.49615074	    -15.82796270	      0.08355331	      0.99805265	      0.22583332	     -7.98459162	     -5.90082735	    -21.27585685	     12.78638116	      7.38348665	    -14.34639584	      0.00000000	      4.15829063	      2.11486711	     39.21627203	      0.00000000	      6.83107607	     10.41677652	      0.00000000	    -13.35098045	     -0.29227267	      1.15690952	      3.37761924	    -13.63278178	     20.56383982	     18.26808290	    119.74817918	      6.59165991	    -10.92007880	     42.67253506	     42.21135658	    119.74817918
